PathFileType	4	(X/Y/Z)	C:\Users\WrightLab\Desktop\Jo\P5V16.trc
DataRate	CameraRate	NumFrames	NumMarkers	Units	OrigDataRate	OrigDataStartFrame	OrigNumFrames
100.00	100.00	       12	19	mm	100.00	576	       767
Frame#	Time	Headset_Front			Headset_Back			Headset_Left			Headset_Right			Left_Shoulder			Right_Shoulder			Sternum			C7			Left Elbow			Right Elbow			Left Wrist			Right Wrist			Left ASIS			Right ASIS			S2			Left Knee			Right Knee			Left Ankle			Right Ankle			
		X1	Y1	Z1	X2	Y2	Z2	X3	Y3	Z3	X4	Y4	Z4	X5	Y5	Z5	X6	Y6	Z6	X7	Y7	Z7	X8	Y8	Z8	X9	Y9	Z9	X10	Y10	Z10	X11	Y11	Z11	X12	Y12	Z12	X13	Y13	Z13	X14	Y14	Z14	X15	Y15	Z15	X16	Y16	Z16	X17	Y17	Z17	X18	Y18	Z18	X19	Y19	Z19	

576	5.750	50.34385	1579.80603	1681.16821	361.06552	1207.07751	1867.42041							424.09949	1552.61450	1676.13586				197.08780	1372.44690	1619.82397				523.25671	1280.15234	1730.72009	124.63250	1261.37903	1252.60767				-17.61347	1146.65515	1401.20984	327.05548	977.82703	1693.89197	103.65751	995.60492	1522.26990	418.80334	1016.49725	1413.93628	409.23993	533.57416	1629.70764	88.81396	580.36780	1635.82544	539.20758	156.18239	1418.38831	155.38921	146.50883	1708.37952	
577	5.760	44.48519	1578.98767	1684.44885	352.45700	1207.03271	1875.94299							418.15616	1551.65100	1683.91455				191.80127	1370.88989	1625.27356				516.07605	1279.59924	1741.21057	123.74747	1258.98059	1258.53613				-20.59346	1145.40430	1405.19653	321.11002	977.09021	1703.03564	99.14642	994.57220	1529.34595	414.87317	1014.66656	1423.26184	404.50488	532.85602	1633.79578	89.47851	575.04639	1639.97437	538.01764	158.02127	1420.15295	152.16902	145.54430	1719.93909	
578	5.770	38.79387	1578.98425	1689.99207	344.42352	1206.26746	1883.61475							412.39001	1550.02393	1691.01074				185.77254	1370.48315	1632.36133				510.08890	1278.48901	1749.59705	122.53155	1256.36707	1263.98401				-24.16405	1144.26025	1409.28308	315.08307	976.18652	1711.41138	94.98989	993.17395	1536.66968	410.95346	1012.64966	1432.17529	399.76688	532.75824	1640.53894	90.80643	569.99457	1644.51514	537.63159	161.16475	1422.80334	151.34915	142.92984	1729.03320	
579	5.780	32.60823	1578.10168	1693.07507	336.18198	1205.73560	1892.45911							406.54443	1548.75293	1699.03247				180.63605	1369.53015	1638.64185				503.37909	1276.94666	1759.22925	120.77940	1254.50000	1269.16040				-27.59857	1142.83264	1413.38171	308.65115	975.36316	1720.60791	90.35731	991.78320	1544.79529	408.56097	1010.13293	1441.57068	394.62543	533.17200	1647.62451	93.06319	565.80267	1648.58972	536.98547	163.72107	1425.37878	151.45476	139.53468	1738.25391	
580	5.790	26.62359	1577.47449	1696.52722	327.90475	1204.93298	1899.56958							400.49213	1547.72009	1706.67456				174.80054	1367.75049	1643.97607				496.58002	1275.87720	1768.33472	119.83076	1252.35681	1275.28259				-30.67306	1141.30334	1417.43298	302.95010	974.39185	1729.00769	86.49968	990.23389	1551.43225	404.17859	1006.74292	1450.43567	389.58987	532.90778	1655.39868	94.17708	562.06183	1655.43396	536.45038	167.04842	1428.53662	152.19583	135.94778	1746.56396	
581	5.800	21.18555	1576.94946	1701.31311	319.80484	1203.97095	1907.52124							395.06757	1546.19141	1713.24219				169.44453	1366.48975	1650.13501				489.54068	1273.96997	1777.76770	117.93319	1249.90906	1280.11877				-33.97495	1139.77368	1421.43530	296.62903	973.39758	1738.70300	81.69910	988.58398	1559.66711	401.03223	1004.01361	1460.40039	384.08044	531.50317	1665.29468	93.49004	559.60907	1663.04431	535.58789	170.66096	1431.87048	152.10542	135.39619	1746.70520	
582	5.810	15.64800	1575.64490	1703.84644	311.57074	1203.74121	1915.29138							388.79852	1544.46912	1720.43262				163.38121	1365.13733	1656.86853				481.96683	1273.17285	1787.53198	116.84004	1246.90381	1286.12219				-37.54899	1138.16248	1425.20471	290.30548	972.34320	1747.79382	76.70888	986.74127	1567.57104	396.43628	1000.70422	1470.42798	377.92166	529.67090	1677.73486	89.07249	558.30078	1670.57861	534.80585	174.73114	1435.65210	151.20706	132.50484	1752.76770	
583	5.820	9.50718	1575.15137	1706.69226	303.61923	1202.78027	1922.45300							383.19495	1542.52710	1727.30029				157.13362	1363.37927	1662.59875				475.50531	1271.36035	1796.20715	115.33475	1244.10645	1291.76514				-41.02866	1136.52576	1428.94446	283.40219	971.26251	1757.08093	71.34372	984.80341	1575.76636	392.78568	997.08728	1480.56824	371.44348	526.82172	1691.46692	84.22704	556.38995	1678.45313	534.65070	179.20612	1440.97668	149.58549	132.68010	1757.80896	
584	5.830	3.89159	1574.44580	1710.86304	295.25500	1202.18689	1930.59863							377.02542	1541.74280	1735.18237				151.34955	1362.32849	1668.75073				469.10663	1269.75818	1804.52917	113.57790	1240.91968	1296.68262				-44.41985	1134.91504	1432.70020	276.22525	969.66803	1766.80603	66.38816	982.95807	1583.70007	387.91193	993.46442	1489.75574	366.22955	523.85693	1705.35620	79.47826	553.52087	1685.92188	533.60364	184.60931	1447.60168	147.84143	132.80208	1763.03772	
585	5.840	-2.19413	1574.60461	1715.40710	287.12537	1201.36877	1937.26062							371.45764	1539.92078	1741.62329				145.34241	1361.06860	1674.21863				461.86191	1268.64063	1814.04468	111.91406	1238.08801	1301.88416				-48.27818	1133.72534	1434.94019	268.39175	968.78534	1776.42261	61.14195	981.06708	1591.96863	384.15091	989.87738	1500.38257	361.37540	520.43085	1720.46191	73.53386	549.86902	1695.90234	532.57330	190.41225	1454.31970	147.19958	132.80836	1763.99060	
586	5.850	-8.29778	1574.46436	1718.01160	278.72891	1200.56189	1945.60046							366.52020	1538.33789	1747.86389				139.96645	1360.27795	1680.51135				455.30869	1266.98694	1822.03577	110.54617	1235.27197	1307.20093				-51.95411	1131.98987	1438.40759	259.95959	968.67834	1785.92847	55.38523	979.65656	1599.05176	379.39459	987.51959	1511.43225	355.71948	517.52576	1736.84448	70.00198	545.48486	1703.64453	530.58337	197.23549	1462.98303	148.35416	131.51639	1768.94739	
587	5.860	-14.42615	1573.99500	1721.03223	270.80719	1199.98413	1951.91980							361.16339	1537.51660	1754.24304	296.62912	1535.39978	1520.15625	134.61191	1359.89197	1686.31506	158.77742	1691.22852	1754.07068	448.27319	1265.67712	1830.48303	109.14921	1233.10669	1312.82776				-55.07254	1130.47437	1442.18164	251.26161	967.31622	1794.91626	49.74215	978.64709	1605.89380	374.57709	984.89819	1521.91211	348.31613	515.30524	1754.40637	66.64098	541.84308	1712.13892	528.47998	204.49156	1475.06775	147.50613	133.21175	1768.52979	
